<svg viewBox="0 0 860 620" xmlns="http://www.w3.org/2000/svg" xmlns:xlink="http://www.w3.org/1999/xlink" overflow="hidden"><defs><marker refX="6" refY="3.5" markerWidth="7" markerHeight="7" markerUnits="strokeWidth" orient="auto" id="arr" overflow="hidden"><path d="M0 0 7 3.5 0 7Z" stroke="#000000" stroke-width="1.49306" fill="#888888"/></marker><marker refX="6" refY="3.5" markerWidth="7" markerHeight="7" markerUnits="strokeWidth" orient="auto" id="arr-g" overflow="hidden"><path d="M0 0 7 3.5 0 7Z" stroke="#000000" stroke-width="1.49306" fill="#1D9E75"/></marker><marker refX="6" refY="3.5" markerWidth="7" markerHeight="7" markerUnits="strokeWidth" orient="auto" id="arr-b" overflow="hidden"><path d="M0 0 7 3.5 0 7Z" stroke="#000000" stroke-width="1.49306" fill="#378ADD"/></marker><marker refX="6" refY="3.5" markerWidth="7" markerHeight="7" markerUnits="strokeWidth" orient="auto" id="arr-r" overflow="hidden"><path d="M0 0 7 3.5 0 7Z" stroke="#000000" stroke-width="1.49306" fill="#D85A30"/></marker><mask maskUnits="userSpaceOnUse" id="imagine-text-gaps-685653"><rect x="0" y="0" width="860" height="620" fill="#FFFFFF"/><rect x="214.295" y="6.58141" rx="2" width="432.689" height="21.0782"/><rect x="251.854" y="25.0212" rx="2" width="356.728" height="17.4186"/><rect x="34.866" y="61.0212" rx="2" width="38.4389" height="17.4186"/><rect x="21.0376" y="76.241" rx="2" width="66.2372" height="16.1987"/><rect x="23.7346" y="88.241" rx="2" width="60.2476" height="16.1987"/><rect x="165.555" y="60.0212" rx="2" width="28.4701" height="17.4186"/><rect x="148.048" y="75.241" rx="2" width="63.3609" height="16.1987"/><rect x="140.643" y="87.241" rx="2" width="78.8401" height="16.1987"/><rect x="165.841" y="160.021" rx="2" width="27.9096" height="17.4186"/><rect x="148.458" y="175.241" rx="2" width="63.3783" height="16.1987"/><rect x="139.985" y="187.241" rx="2" width="80.1573" height="16.1987"/><rect x="165.564" y="260.021" rx="2" width="28.4536" height="17.4186"/><rect x="148.581" y="275.241" rx="2" width="62.1585" height="16.1987"/><rect x="144.407" y="287.241" rx="2" width="71.3213" height="16.1987"/><rect x="165.641" y="360.021" rx="2" width="28.3053" height="17.4186"/><rect x="148.305" y="375.241" rx="2" width="63.3783" height="16.1987"/><rect x="141.653" y="387.241" rx="2" width="76.8245" height="16.1987"/><rect x="146.037" y="460.021" rx="2" width="67.6364" height="17.4186"/><rect x="148.553" y="475.241" rx="2" width="63.3783" height="16.1987"/><rect x="142.482" y="487.241" rx="2" width="75.173" height="16.1987"/><rect x="318.841" y="60.0212" rx="2" width="28.4702" height="17.4186"/><rect x="300.981" y="76.241" rx="2" width="64.5059" height="16.1987"/><rect x="307.5" y="88.241" rx="2" width="51.4091" height="16.1987"/><rect x="478.564" y="60.0212" rx="2" width="28.4701" height="17.4186"/><rect x="460.981" y="76.241" rx="2" width="64.5059" height="16.1987"/><rect x="467.5" y="88.241" rx="2" width="51.4091" height="16.1987"/><rect x="638.641" y="60.0212" rx="2" width="28.4702" height="17.4186"/><rect x="620.981" y="76.241" rx="2" width="64.5059" height="16.1987"/><rect x="627.5" y="88.241" rx="2" width="51.4091" height="16.1987"/><rect x="319.117" y="160.021" rx="2" width="27.9096" height="17.4186"/><rect x="300.981" y="176.241" rx="2" width="64.5059" height="16.1987"/><rect x="309.492" y="188.241" rx="2" width="47.5075" height="16.1987"/><rect x="478.841" y="160.021" rx="2" width="27.9096" height="17.4186"/><rect x="460.981" y="176.241" rx="2" width="64.5059" height="16.1987"/><rect x="469.492" y="188.241" rx="2" width="47.5075" height="16.1987"/><rect x="318.841" y="260.021" rx="2" width="28.4536" height="17.4186"/><rect x="300.981" y="276.241" rx="2" width="64.5059" height="16.1987"/><rect x="312.799" y="288.241" rx="2" width="40.3778" height="16.1987"/><rect x="318.917" y="360.021" rx="2" width="28.3053" height="17.4186"/><rect x="300.314" y="376.241" rx="2" width="66.0601" height="16.1987"/><rect x="313.313" y="388.241" rx="2" width="39.6744" height="16.1987"/><rect x="778.615" y="60.0212" rx="2" width="48.9353" height="17.4186"/><rect x="777.452" y="76.241" rx="2" width="51.5638" height="16.1987"/><rect x="776.013" y="88.241" rx="2" width="54.4076" height="16.1987"/><rect x="754.78" y="171.461" rx="2" width="47.4298" height="14.9788"/><rect x="754.78" y="271.461" rx="2" width="47.4298" height="14.9788"/><rect x="617.083" y="384.241" rx="2" width="185.461" height="16.1987"/><rect x="662.78" y="407.241" rx="2" width="94.0524" height="16.1987"/><rect x="652.287" y="435.241" rx="2" width="115.494" height="16.1987"/><rect x="661.942" y="463.241" rx="2" width="95.7438" height="16.1987"/><rect x="594.78" y="441.461" rx="2" width="43.3649" height="14.9788"/><rect x="594.78" y="451.461" rx="2" width="48.1074" height="14.9788"/><rect x="702.216" y="479.461" rx="2" width="15.3192" height="14.9788"/><rect x="18.7801" y="535.021" rx="2" width="48.2812" height="17.4186"/><rect x="38.7801" y="555.241" rx="2" width="172.938" height="16.1987"/><rect x="214.78" y="555.241" rx="2" width="231.367" height="16.1987"/><rect x="484.78" y="555.241" rx="2" width="135.057" height="16.1987"/><rect x="644.78" y="555.241" rx="2" width="133.218" height="16.1987"/><rect x="56.7801" y="579.241" rx="2" width="146.644" height="16.1987"/><rect x="252.78" y="579.241" rx="2" width="116.003" height="16.1987"/><rect x="452.78" y="579.241" rx="2" width="161.278" height="16.1987"/><rect x="672.78" y="579.241" rx="2" width="163.633" height="16.1987"/></mask></defs><text color="#000000" fill="#2C2C2A" font-family="Anthropic Sans,Arial" font-weight="500" font-size="14" text-anchor="middle" x="430" y="22">ResNet50 encoder + U-Net++ decoder — satellite fire detection</text><text color="#000000" fill="#888888" font-family="Anthropic Sans,Arial" font-weight="400" font-size="11" text-anchor="middle" x="430" y="38">Architecture based on Zhou et al. (2018) and Ghandorh et al. (2023)</text><rect x="10" y="55" rx="4" width="88" height="48" color="#000000" stroke="#000000" stroke-width="1.49306" fill="#E1F5EE" font-family="Anthropic Sans,Arial" font-weight="400" font-size="16"/><text color="#000000" fill="#085041" font-family="Anthropic Sans,Arial" font-weight="500" font-size="11" text-anchor="middle" x="54" y="74">Input</text><text color="#000000" fill="#0F6E56" font-family="Anthropic Sans,Arial" font-weight="400" font-size="10" text-anchor="middle" x="54" y="88">Satellite tile</text><text color="#000000" fill="#0F6E56" font-family="Anthropic Sans,Arial" font-weight="400" font-size="10" text-anchor="middle" x="54" y="100">512×512×C</text><rect x="130" y="55" rx="4" width="100" height="48" color="#000000" stroke="#000000" stroke-width="1.49306" fill="#EEEDFE" font-family="Anthropic Sans,Arial" font-weight="400" font-size="16"/><text color="#000000" fill="#26215C" font-family="Anthropic Sans,Arial" font-weight="500" font-size="11" text-anchor="middle" x="180" y="73">X⁰·⁰</text><text color="#000000" fill="#3C3489" font-family="Anthropic Sans,Arial" font-weight="400" font-size="10" text-anchor="middle" x="180" y="87">Conv1 + BN</text><text color="#000000" fill="#3C3489" font-family="Anthropic Sans,Arial" font-weight="400" font-size="10" text-anchor="middle" x="180" y="99">256×256, 64ch</text><rect x="130" y="155" rx="4" width="100" height="48" color="#000000" stroke="#000000" stroke-width="1.49306" fill="#EEEDFE" font-family="Anthropic Sans,Arial" font-weight="400" font-size="16"/><text color="#000000" fill="#26215C" font-family="Anthropic Sans,Arial" font-weight="500" font-size="11" text-anchor="middle" x="180" y="173">X¹·⁰</text><text color="#000000" fill="#3C3489" font-family="Anthropic Sans,Arial" font-weight="400" font-size="10" text-anchor="middle" x="180" y="187">ResBlock-2</text><text color="#000000" fill="#3C3489" font-family="Anthropic Sans,Arial" font-weight="400" font-size="10" text-anchor="middle" x="180" y="199">128×128, 256ch</text><rect x="130" y="255" rx="4" width="100" height="48" color="#000000" stroke="#000000" stroke-width="1.49306" fill="#EEEDFE" font-family="Anthropic Sans,Arial" font-weight="400" font-size="16"/><text color="#000000" fill="#26215C" font-family="Anthropic Sans,Arial" font-weight="500" font-size="11" text-anchor="middle" x="180" y="273">X²·⁰</text><text color="#000000" fill="#3C3489" font-family="Anthropic Sans,Arial" font-weight="400" font-size="10" text-anchor="middle" x="180" y="287">ResBlock-3</text><text color="#000000" fill="#3C3489" font-family="Anthropic Sans,Arial" font-weight="400" font-size="10" text-anchor="middle" x="180" y="299">64×64, 512ch</text><rect x="130" y="355" rx="4" width="100" height="48" color="#000000" stroke="#000000" stroke-width="1.49306" fill="#EEEDFE" font-family="Anthropic Sans,Arial" font-weight="400" font-size="16"/><text color="#000000" fill="#26215C" font-family="Anthropic Sans,Arial" font-weight="500" font-size="11" text-anchor="middle" x="180" y="373">X³·⁰</text><text color="#000000" fill="#3C3489" font-family="Anthropic Sans,Arial" font-weight="400" font-size="10" text-anchor="middle" x="180" y="387">ResBlock-4</text><text color="#000000" fill="#3C3489" font-family="Anthropic Sans,Arial" font-weight="400" font-size="10" text-anchor="middle" x="180" y="399">32×32, 1024ch</text><rect x="130" y="455" rx="4" width="100" height="48" color="#000000" stroke="#000000" stroke-width="1.49306" fill="#2C2C2A" font-family="Anthropic Sans,Arial" font-weight="400" font-size="16"/><text color="#000000" fill="#F1EFE8" font-family="Anthropic Sans,Arial" font-weight="500" font-size="11" text-anchor="middle" x="180" y="473">Bottleneck</text><text color="#000000" fill="#B4B2A9" font-family="Anthropic Sans,Arial" font-weight="400" font-size="10" text-anchor="middle" x="180" y="487">ResBlock-5</text><text color="#000000" fill="#B4B2A9" font-family="Anthropic Sans,Arial" font-weight="400" font-size="10" text-anchor="middle" x="180" y="499">16×16, 2048ch</text><line x1="180" y1="103" x2="180" y2="152" color="#000000" stroke="#000000" stroke-width="1.49306" marker-end="url(#arr)" font-family="Anthropic Sans,Arial" font-weight="400" font-size="16" mask="url(#imagine-text-gaps-685653)"/><line x1="180" y1="203" x2="180" y2="252" color="#000000" stroke="#000000" stroke-width="1.49306" marker-end="url(#arr)" font-family="Anthropic Sans,Arial" font-weight="400" font-size="16" mask="url(#imagine-text-gaps-685653)"/><line x1="180" y1="303" x2="180" y2="352" color="#000000" stroke="#000000" stroke-width="1.49306" marker-end="url(#arr)" font-family="Anthropic Sans,Arial" font-weight="400" font-size="16" mask="url(#imagine-text-gaps-685653)"/><line x1="180" y1="403" x2="180" y2="452" color="#000000" stroke="#000000" stroke-width="1.49306" marker-end="url(#arr)" font-family="Anthropic Sans,Arial" font-weight="400" font-size="16" mask="url(#imagine-text-gaps-685653)"/><line x1="98" y1="79" x2="128" y2="79" color="#000000" stroke="#000000" stroke-width="1.49306" marker-end="url(#arr)" font-family="Anthropic Sans,Arial" font-weight="400" font-size="16"/><rect x="290" y="55" rx="4" width="86" height="48" color="#000000" stroke="#000000" stroke-width="1.49306" fill="#E1F5EE" font-family="Anthropic Sans,Arial" font-weight="400" font-size="16"/><text color="#000000" fill="#085041" font-family="Anthropic Sans,Arial" font-weight="500" font-size="11" text-anchor="middle" x="333" y="73">X⁰·¹</text><text color="#000000" fill="#0F6E56" font-family="Anthropic Sans,Arial" font-weight="400" font-size="10" text-anchor="middle" x="333" y="88">dense conv</text><text color="#000000" fill="#0F6E56" font-family="Anthropic Sans,Arial" font-weight="400" font-size="10" text-anchor="middle" x="333" y="100">256×256</text><rect x="450" y="55" rx="4" width="86" height="48" color="#000000" stroke="#000000" stroke-width="1.49306" fill="#E1F5EE" font-family="Anthropic Sans,Arial" font-weight="400" font-size="16"/><text color="#000000" fill="#085041" font-family="Anthropic Sans,Arial" font-weight="500" font-size="11" text-anchor="middle" x="493" y="73">X⁰·²</text><text color="#000000" fill="#0F6E56" font-family="Anthropic Sans,Arial" font-weight="400" font-size="10" text-anchor="middle" x="493" y="88">dense conv</text><text color="#000000" fill="#0F6E56" font-family="Anthropic Sans,Arial" font-weight="400" font-size="10" text-anchor="middle" x="493" y="100">256×256</text><rect x="610" y="55" rx="4" width="86" height="48" color="#000000" stroke="#000000" stroke-width="1.49306" fill="#E1F5EE" font-family="Anthropic Sans,Arial" font-weight="400" font-size="16"/><text color="#000000" fill="#085041" font-family="Anthropic Sans,Arial" font-weight="500" font-size="11" text-anchor="middle" x="653" y="73">X⁰·³</text><text color="#000000" fill="#0F6E56" font-family="Anthropic Sans,Arial" font-weight="400" font-size="10" text-anchor="middle" x="653" y="88">dense conv</text><text color="#000000" fill="#0F6E56" font-family="Anthropic Sans,Arial" font-weight="400" font-size="10" text-anchor="middle" x="653" y="100">256×256</text><rect x="290" y="155" rx="4" width="86" height="48" color="#000000" stroke="#000000" stroke-width="1.49306" fill="#E1F5EE" font-family="Anthropic Sans,Arial" font-weight="400" font-size="16"/><text color="#000000" fill="#085041" font-family="Anthropic Sans,Arial" font-weight="500" font-size="11" text-anchor="middle" x="333" y="173">X¹·¹</text><text color="#000000" fill="#0F6E56" font-family="Anthropic Sans,Arial" font-weight="400" font-size="10" text-anchor="middle" x="333" y="188">dense conv</text><text color="#000000" fill="#0F6E56" font-family="Anthropic Sans,Arial" font-weight="400" font-size="10" text-anchor="middle" x="333" y="200">128×128</text><rect x="450" y="155" rx="4" width="86" height="48" color="#000000" stroke="#000000" stroke-width="1.49306" fill="#E1F5EE" font-family="Anthropic Sans,Arial" font-weight="400" font-size="16"/><text color="#000000" fill="#085041" font-family="Anthropic Sans,Arial" font-weight="500" font-size="11" text-anchor="middle" x="493" y="173">X¹·²</text><text color="#000000" fill="#0F6E56" font-family="Anthropic Sans,Arial" font-weight="400" font-size="10" text-anchor="middle" x="493" y="188">dense conv</text><text color="#000000" fill="#0F6E56" font-family="Anthropic Sans,Arial" font-weight="400" font-size="10" text-anchor="middle" x="493" y="200">128×128</text><rect x="290" y="255" rx="4" width="86" height="48" color="#000000" stroke="#000000" stroke-width="1.49306" fill="#E1F5EE" font-family="Anthropic Sans,Arial" font-weight="400" font-size="16"/><text color="#000000" fill="#085041" font-family="Anthropic Sans,Arial" font-weight="500" font-size="11" text-anchor="middle" x="333" y="273">X²·¹</text><text color="#000000" fill="#0F6E56" font-family="Anthropic Sans,Arial" font-weight="400" font-size="10" text-anchor="middle" x="333" y="288">dense conv</text><text color="#000000" fill="#0F6E56" font-family="Anthropic Sans,Arial" font-weight="400" font-size="10" text-anchor="middle" x="333" y="300">64×64</text><rect x="290" y="355" rx="4" width="86" height="48" color="#000000" stroke="#000000" stroke-width="1.49306" fill="#E6F1FB" font-family="Anthropic Sans,Arial" font-weight="400" font-size="16"/><text color="#000000" fill="#042C53" font-family="Anthropic Sans,Arial" font-weight="500" font-size="11" text-anchor="middle" x="333" y="373">X³·¹</text><text color="#000000" fill="#185FA5" font-family="Anthropic Sans,Arial" font-weight="400" font-size="10" text-anchor="middle" x="333" y="388">up + concat</text><text color="#000000" fill="#185FA5" font-family="Anthropic Sans,Arial" font-weight="400" font-size="10" text-anchor="middle" x="333" y="400">32×32</text><line x1="230" y1="79" x2="287" y2="79" color="#000000" stroke="#000000" stroke-width="1.49306" marker-end="url(#arr-g)" font-family="Anthropic Sans,Arial" font-weight="400" font-size="16"/><line x1="376" y1="79" x2="448" y2="79" color="#000000" stroke="#000000" stroke-width="1.49306" marker-end="url(#arr-g)" font-family="Anthropic Sans,Arial" font-weight="400" font-size="16"/><line x1="536" y1="79" x2="608" y2="79" color="#000000" stroke="#000000" stroke-width="1.49306" marker-end="url(#arr-g)" font-family="Anthropic Sans,Arial" font-weight="400" font-size="16"/><line x1="230" y1="179" x2="287" y2="179" color="#000000" stroke="#000000" stroke-width="1.49306" marker-end="url(#arr-g)" font-family="Anthropic Sans,Arial" font-weight="400" font-size="16"/><line x1="376" y1="179" x2="448" y2="179" color="#000000" stroke="#000000" stroke-width="1.49306" marker-end="url(#arr-g)" font-family="Anthropic Sans,Arial" font-weight="400" font-size="16"/><line x1="230" y1="279" x2="287" y2="279" color="#000000" stroke="#000000" stroke-width="1.49306" marker-end="url(#arr-g)" font-family="Anthropic Sans,Arial" font-weight="400" font-size="16"/><line x1="230" y1="379" x2="287" y2="379" color="#000000" stroke="#000000" stroke-width="1.49306" marker-end="url(#arr-b)" font-family="Anthropic Sans,Arial" font-weight="400" font-size="16"/><line x1="333" y1="155" x2="333" y2="106" color="#000000" stroke="#000000" stroke-width="1.49306" marker-end="url(#arr-b)" font-family="Anthropic Sans,Arial" font-weight="400" font-size="16"/><line x1="493" y1="155" x2="493" y2="106" color="#000000" stroke="#000000" stroke-width="1.49306" marker-end="url(#arr-b)" font-family="Anthropic Sans,Arial" font-weight="400" font-size="16"/><line x1="333" y1="255" x2="333" y2="206" color="#000000" stroke="#000000" stroke-width="1.49306" marker-end="url(#arr-b)" font-family="Anthropic Sans,Arial" font-weight="400" font-size="16"/><line x1="333" y1="355" x2="333" y2="306" color="#000000" stroke="#000000" stroke-width="1.49306" marker-end="url(#arr-b)" font-family="Anthropic Sans,Arial" font-weight="400" font-size="16"/><line x1="230" y1="479" x2="287" y2="402" color="#000000" stroke="#000000" stroke-width="1.49306" marker-end="url(#arr-b)" font-family="Anthropic Sans,Arial" font-weight="400" font-size="16"/><line x1="493" y1="255" x2="493" y2="206" color="#000000" stroke="#000000" stroke-width="1.49306" marker-end="url(#arr-b)" font-family="Anthropic Sans,Arial" font-weight="400" font-size="16"/><rect x="760" y="55" rx="4" width="86" height="48" color="#000000" stroke="#000000" stroke-width="1.49306" fill="#FAECE7" font-family="Anthropic Sans,Arial" font-weight="400" font-size="16"/><text color="#000000" fill="#4A1B0C" font-family="Anthropic Sans,Arial" font-weight="500" font-size="11" text-anchor="middle" x="803" y="73">Output</text><text color="#000000" fill="#993C1D" font-family="Anthropic Sans,Arial" font-weight="400" font-size="10" text-anchor="middle" x="803" y="88">1×1 Conv</text><text color="#000000" fill="#993C1D" font-family="Anthropic Sans,Arial" font-weight="400" font-size="10" text-anchor="middle" x="803" y="100">fire mask</text><line x1="696" y1="79" x2="758" y2="79" color="#000000" stroke="#000000" stroke-width="1.49306" marker-end="url(#arr-r)" font-family="Anthropic Sans,Arial" font-weight="400" font-size="16"/><line x1="696" y1="79" x2="758" y2="79" color="#000000" stroke="#000000" stroke-width="1.49306" marker-end="url(#arr-r)" font-family="Anthropic Sans,Arial" font-weight="400" font-size="16"/><circle cx="756" cy="179" r="5" color="#000000" stroke="#000000" stroke-width="1.49306" fill="#D85A30" font-family="Anthropic Sans,Arial" font-weight="400" font-size="16" opacity="0.5"/><circle cx="756" cy="279" r="5" color="#000000" stroke="#000000" stroke-width="1.49306" fill="#D85A30" font-family="Anthropic Sans,Arial" font-weight="400" font-size="16" opacity="0.5"/><line x1="536" y1="179" x2="750" y2="179" color="#000000" stroke="#000000" stroke-width="1.49306" font-family="Anthropic Sans,Arial" font-weight="400" font-size="16" opacity="0.5"/><line x1="376" y1="279" x2="750" y2="279" color="#000000" stroke="#000000" stroke-width="1.49306" font-family="Anthropic Sans,Arial" font-weight="400" font-size="16" opacity="0.5"/><text color="#000000" fill="#993C1D" font-family="Anthropic Sans,Arial" font-weight="400" font-size="9" x="760" y="182">aux. sup.</text><text color="#000000" fill="#993C1D" font-family="Anthropic Sans,Arial" font-weight="400" font-size="9" x="760" y="282">aux. sup.</text><rect x="590" y="380" rx="6" width="240" height="140" color="#000000" stroke="#000000" stroke-width="1.49306" fill="none" font-family="Anthropic Sans,Arial" font-weight="400" font-size="16"/><text color="#000000" fill="#5F5E5A" font-family="Anthropic Sans,Arial" font-weight="400" font-size="10" text-anchor="middle" x="710" y="396">ResNet50 residual block (bottleneck)</text><rect x="648" y="404" rx="3" width="124" height="22" color="#000000" stroke="#000000" stroke-width="1.49306" fill="#EEEDFE" font-family="Anthropic Sans,Arial" font-weight="400" font-size="16"/><text color="#000000" fill="#26215C" font-family="Anthropic Sans,Arial" font-weight="400" font-size="10" text-anchor="middle" x="710" y="419">1×1 Conv (reduce)</text><rect x="648" y="432" rx="3" width="124" height="22" color="#000000" stroke="#000000" stroke-width="1.49306" fill="#EEEDFE" font-family="Anthropic Sans,Arial" font-weight="400" font-size="16"/><text color="#000000" fill="#26215C" font-family="Anthropic Sans,Arial" font-weight="400" font-size="10" text-anchor="middle" x="710" y="447">3×3 Conv + BN + ReLU</text><rect x="648" y="460" rx="3" width="124" height="22" color="#000000" stroke="#000000" stroke-width="1.49306" fill="#EEEDFE" font-family="Anthropic Sans,Arial" font-weight="400" font-size="16"/><text color="#000000" fill="#26215C" font-family="Anthropic Sans,Arial" font-weight="400" font-size="10" text-anchor="middle" x="710" y="475">1×1 Conv (expand)</text><line x1="710" y1="426" x2="710" y2="430" color="#000000" stroke="#000000" stroke-width="1.49306" marker-end="url(#arr)" font-family="Anthropic Sans,Arial" font-weight="400" font-size="16"/><line x1="710" y1="454" x2="710" y2="458" color="#000000" stroke="#000000" stroke-width="1.49306" marker-end="url(#arr)" font-family="Anthropic Sans,Arial" font-weight="400" font-size="16"/><line x1="630" y1="415" x2="622" y2="415" color="#000000" stroke="#000000" stroke-width="1.49306" font-family="Anthropic Sans,Arial" font-weight="400" font-size="16"/><line x1="622" y1="415" x2="622" y2="486" color="#000000" stroke="#000000" stroke-width="1.49306" font-family="Anthropic Sans,Arial" font-weight="400" font-size="16" mask="url(#imagine-text-gaps-685653)"/><line x1="622" y1="486" x2="772" y2="486" color="#000000" stroke="#000000" stroke-width="1.49306" font-family="Anthropic Sans,Arial" font-weight="400" font-size="16" mask="url(#imagine-text-gaps-685653)"/><line x1="772" y1="486" x2="772" y2="471" color="#000000" stroke="#000000" stroke-width="1.49306" marker-end="url(#arr)" font-family="Anthropic Sans,Arial" font-weight="400" font-size="16"/><text color="#000000" fill="#534AB7" font-family="Anthropic Sans,Arial" font-weight="400" font-size="9" x="600" y="452">identity</text><text color="#000000" fill="#534AB7" font-family="Anthropic Sans,Arial" font-weight="400" font-size="9" x="600" y="462">shortcut</text><rect x="700" y="482" rx="2" width="20" height="10" color="#000000" stroke="#000000" stroke-width="1.49306" fill="#534AB7" font-family="Anthropic Sans,Arial" font-weight="400" font-size="16"/><text color="#000000" fill="#EEEDFE" font-family="Anthropic Sans,Arial" font-weight="400" font-size="8" text-anchor="middle" x="710" y="490">+</text><line x1="710" y1="482" x2="710" y2="465" color="#000000" stroke="#000000" stroke-width="1.49306" marker-end="url(#arr)" font-family="Anthropic Sans,Arial" font-weight="400" font-size="16" mask="url(#imagine-text-gaps-685653)"/><rect x="10" y="530" rx="5" width="830" height="74" color="#000000" stroke="#000000" stroke-width="1.49306" fill="none" font-family="Anthropic Sans,Arial" font-weight="400" font-size="16"/><text color="#000000" fill="#2C2C2A" font-family="Anthropic Sans,Arial" font-weight="500" font-size="11" x="24" y="548">Legend</text><rect x="24" y="556" rx="2" width="14" height="14" color="#000000" stroke="#000000" stroke-width="1.49306" fill="#EEEDFE" font-family="Anthropic Sans,Arial" font-weight="400" font-size="16"/><text color="#000000" fill="#444441" font-family="Anthropic Sans,Arial" font-weight="400" font-size="10" x="44" y="567">ResNet50 encoder blocks (X^{i,0})</text><rect x="200" y="556" rx="2" width="14" height="14" color="#000000" stroke="#000000" stroke-width="1.49306" fill="#E1F5EE" font-family="Anthropic Sans,Arial" font-weight="400" font-size="16"/><text color="#000000" fill="#444441" font-family="Anthropic Sans,Arial" font-weight="400" font-size="10" x="220" y="567">Dense skip conv nodes (U-Net++ intermediate)</text><rect x="470" y="556" rx="2" width="14" height="14" color="#000000" stroke="#000000" stroke-width="1.49306" fill="#E6F1FB" font-family="Anthropic Sans,Arial" font-weight="400" font-size="16"/><text color="#000000" fill="#444441" font-family="Anthropic Sans,Arial" font-weight="400" font-size="10" x="490" y="567">Decoder / upsample nodes</text><rect x="630" y="556" rx="2" width="14" height="14" color="#000000" stroke="#000000" stroke-width="1.49306" fill="#FAECE7" font-family="Anthropic Sans,Arial" font-weight="400" font-size="16"/><text color="#000000" fill="#444441" font-family="Anthropic Sans,Arial" font-weight="400" font-size="10" x="650" y="567">Output / deep supervision</text><line x1="24" y1="588" x2="56" y2="588" color="#000000" stroke="#000000" stroke-width="1.49306" marker-end="url(#arr-g)" font-family="Anthropic Sans,Arial" font-weight="400" font-size="16"/><text color="#000000" fill="#444441" font-family="Anthropic Sans,Arial" font-weight="400" font-size="10" x="62" y="591">Dense skip (same resolution)</text><line x1="220" y1="588" x2="252" y2="588" color="#000000" stroke="#000000" stroke-width="1.49306" marker-end="url(#arr-b)" font-family="Anthropic Sans,Arial" font-weight="400" font-size="16"/><text color="#000000" fill="#444441" font-family="Anthropic Sans,Arial" font-weight="400" font-size="10" x="258" y="591">Up-conv (×2) + concat</text><line x1="420" y1="588" x2="452" y2="588" color="#000000" stroke="#000000" stroke-width="1.49306" marker-end="url(#arr)" font-family="Anthropic Sans,Arial" font-weight="400" font-size="16"/><text color="#000000" fill="#444441" font-family="Anthropic Sans,Arial" font-weight="400" font-size="10" x="458" y="591">Down-sample (stride-2 residual)</text><line x1="640" y1="588" x2="672" y2="588" color="#000000" stroke="#000000" stroke-width="1.49306" font-family="Anthropic Sans,Arial" font-weight="400" font-size="16"/><text color="#000000" fill="#444441" font-family="Anthropic Sans,Arial" font-weight="400" font-size="10" x="678" y="591">Auxiliary supervision (deep sup.)</text></svg>